<svg width="184" height="35" viewBox="0 0 184 35" fill="none" xmlns="http://www.w3.org/2000/svg">
<path d="M48.3829 21.4907C49.4899 21.4907 50.4065 21.2344 51.3118 20.0646L53.2895 22.0315C52.1744 23.4937 50.1904 24.2439 48.3834 24.2439C44.9761 24.2439 42.0002 21.6082 42.0002 18.1223C42.0002 16.4014 42.6175 14.9508 43.8525 13.7707C45.0873 12.5905 46.5977 12 48.3834 12C50.277 12 51.9352 12.821 53.2397 14.1642L51.1619 15.983C50.4065 15.2344 49.3167 14.7543 48.3829 14.7543C47.3982 14.7543 46.5969 15.082 45.9796 15.7379C45.362 16.3938 45.0533 17.188 45.0533 18.1223C45.0533 19.0566 45.3616 19.852 45.9796 20.5071C46.5969 21.1634 47.3982 21.4907 48.3829 21.4907Z" fill="#0B3954"/>
<path d="M64.3622 12.296H67.1407V23.9493H64.3622V22.4254C64.2017 22.6593 64.041 22.8627 63.8364 23.0644C63.3505 23.5408 62.7808 23.844 62.1345 24.0477C60.2177 24.6516 58.086 23.8956 56.7149 22.4984C55.5717 21.3347 55.0002 19.8761 55.0002 18.1223C55.0002 16.3685 55.5717 14.9099 56.7149 13.7462C57.8577 12.5825 59.2137 12 60.7825 12C61.5165 12 62.1802 12.152 62.7729 12.4549C63.4454 12.8 63.9044 13.2409 64.3626 13.82L64.3622 12.296ZM64.137 19.8681V16.3769C64.0609 16.1577 63.8635 15.9764 63.7112 15.8117C63.5441 15.6312 63.361 15.4675 63.1605 15.3195C62.9605 15.1723 62.6969 15.0411 62.3718 14.9264C62.0463 14.812 61.6995 14.7543 61.3332 14.7543C60.3316 14.7543 59.5343 15.07 58.9422 15.701C58.3495 16.3316 58.0537 17.1387 58.0537 18.1223C58.0537 19.1059 58.3499 19.913 58.9422 20.5436C59.5343 21.1746 60.3316 21.4903 61.3332 21.4903C61.9 21.4903 62.4175 21.3547 62.8848 21.0844C63.3517 20.814 63.6772 20.5396 63.8615 20.2608L64.137 19.8681Z" fill="#0B3954"/>
<path d="M129.362 12.296H132.141V23.9493H129.362V22.4254C129.202 22.6593 129.041 22.8627 128.836 23.0644C128.351 23.5408 127.781 23.844 127.134 24.0477C125.218 24.6516 123.086 23.8956 121.715 22.4984C120.572 21.3347 120 19.8761 120 18.1223C120 16.3685 120.572 14.9099 121.715 13.7462C122.858 12.5825 124.214 12 125.783 12C126.516 12 127.18 12.152 127.773 12.4549C128.445 12.8 128.904 13.2409 129.363 13.82L129.362 12.296ZM129.137 19.8681V16.3769C129.061 16.1577 128.863 15.9764 128.711 15.8117C128.544 15.6312 128.361 15.4675 128.161 15.3195C127.96 15.1723 127.697 15.0411 127.372 14.9264C127.046 14.812 126.7 14.7543 126.333 14.7543C125.332 14.7543 124.534 15.07 123.942 15.701C123.349 16.3316 123.054 17.1387 123.054 18.1223C123.054 19.1059 123.35 19.913 123.942 20.5436C124.534 21.1746 125.332 21.4903 126.333 21.4903C126.9 21.4903 127.417 21.3547 127.885 21.0844C128.352 20.814 128.677 20.5396 128.862 20.2608L129.137 19.8681Z" fill="#0B3954"/>
<path d="M79.4368 13.2307C80.4004 14.1741 80.7137 15.0945 80.7137 16.4391V23.9867H77.7096V17.176C77.7096 16.3733 77.4928 15.7752 77.0594 15.3813C76.6251 14.9882 76.0579 14.7912 75.3569 14.7912C74.3725 14.7912 73.4835 15.4657 73.0044 16.2911V23.9862H70.0002V12.333H72.8043V14.029C73.1357 13.5331 73.5376 13.0779 74.0308 12.7381C74.2813 12.566 74.6145 12.4064 75.0318 12.2596C76.5323 11.7261 78.1781 11.9984 79.4368 13.2307Z" fill="#0B3954"/>
<path d="M95.1407 5.00081V23.5875H92.3622V22.0635C91.5289 23.2634 90.2569 23.8823 88.7821 23.8823C85.4502 23.8823 83.0002 20.9838 83.0002 17.7604C83.0002 14.5377 85.4504 11.6382 88.7821 11.6382C90.0643 11.6382 91.3126 12.1673 92.1368 13.1621V5L95.1407 5.00081ZM92.1364 19.5062V16.0151C91.5665 15.039 90.4429 14.392 89.3075 14.392C88.3063 14.392 87.5135 14.7077 86.9299 15.3387C86.345 15.9693 86.0533 16.7765 86.0533 17.7601C86.0533 18.7437 86.345 19.5508 86.9299 20.1814C87.5135 20.8124 88.3063 21.1281 89.3075 21.1281C90.4914 21.1281 91.5598 20.4943 92.1364 19.5062Z" fill="#0B3954"/>
<path d="M117.141 5.00081V23.5875H114.362V22.0635C113.529 23.2634 112.257 23.8823 110.782 23.8823C107.45 23.8823 105 20.9838 105 17.7604C105 14.5377 107.45 11.6382 110.782 11.6382C112.064 11.6382 113.313 12.1673 114.137 13.1621V5L117.141 5.00081ZM114.136 19.5062V16.0151C113.566 15.039 112.443 14.392 111.307 14.392C110.306 14.392 109.514 14.7077 108.93 15.3387C108.345 15.9693 108.053 16.7765 108.053 17.7601C108.053 18.7437 108.345 19.5508 108.93 20.1814C109.514 20.8124 110.306 21.1281 111.307 21.1281C112.491 21.1281 113.56 20.4943 114.136 19.5062Z" fill="#0B3954"/>
<path d="M98.5898 8.29916C98.5898 7.21442 99.4938 6.35681 100.568 6.35681C101.642 6.35681 102.546 7.21482 102.546 8.29916C102.546 9.38409 101.642 10.2415 100.568 10.2415C99.4932 10.2415 98.5898 9.38466 98.5898 8.29916ZM99.0661 23.7149V12.0615H102.07V23.7149H99.0661Z" fill="#0B3954"/>
<path d="M133.637 14.7167V12.0619H135.964V8.59485H138.968V12.0619H142.548V14.7167H138.968V19.4125C138.968 21.0605 140.472 21.7523 141.772 20.8382L142.874 23.2479C142.123 23.7565 141.171 24.01 140.02 24.01C137.671 24.01 135.964 22.2032 135.964 19.8799V14.7167H133.637Z" fill="#0B3954"/>
<path d="M150.157 11.766C154.172 11.766 156 15 156 18.9457H147.253C147.586 20.4177 149.162 21.3056 150.583 21.3056C151.825 21.3056 152.899 20.9157 153.837 20.1259L155.339 22.339C150.5 26 144.199 23.2858 144.199 17.8887C144.199 16.1678 144.766 14.7172 145.901 13.537C147.036 12.3565 148.455 11.766 150.157 11.766ZM147.253 16.8064H153.136C153.05 15.2909 151.531 14.4464 150.157 14.4464C148.745 14.4464 147.416 15.3219 147.253 16.8064Z" fill="#0B3954"/>
<path d="M158.141 22.0673C158.141 20.9831 159.045 20.125 160.118 20.125C161.192 20.125 162.096 20.983 162.096 22.0673C162.096 23.1518 161.192 24.0096 160.118 24.0096C159.044 24.0104 158.141 23.1514 158.141 22.0673Z" fill="#F36B21"/>
<path d="M165.254 23.7149V5.12817H168.258V23.7149H165.254Z" fill="#0B3954"/>
<path d="M170.608 28.4355L172.01 26.1492C172.544 26.6573 173.07 26.9112 173.587 26.9112C174.105 26.9112 174.501 26.801 174.777 26.5791C175.052 26.3577 175.331 25.8947 175.615 25.1899L176.091 23.9854L170.309 12.0616H173.637L177.643 20.5928L180.772 12.0616H184.001L178.244 26.3207C177.342 28.55 175.857 29.6647 173.788 29.6647C172.59 29.6647 171.552 29.1301 170.608 28.4355Z" fill="#0B3954"/>
<path d="M32.5013 29.0618C32.5013 32.0533 30.0762 34.4785 27.0846 34.4785C24.0931 34.4785 21.668 32.0533 21.668 29.0618C21.668 26.0703 24.0931 23.6451 27.0846 23.6451C30.0762 23.6451 32.5013 26.0703 32.5013 29.0618Z" fill="#F36B21"/>
<path d="M0 17.5C0 27.165 8.05887 35 18 35V0C8.05887 0 0 7.83502 0 17.5Z" fill="#0B3954"/>
</svg>
