<svg width="221" height="49" viewBox="0 0 221 49" fill="none" xmlns="http://www.w3.org/2000/svg">
<path d="M10.1514 36.761L0 8.95504H7.83422L13.6823 26.9407L19.4752 8.95504H27.3646L17.2132 36.761H10.1514Z" fill="#242424"/>
<path d="M39.6267 8.51367C43.1576 8.51367 46.0633 9.46996 48.3437 11.3825C50.624 13.2583 51.7642 15.7594 51.7642 18.8857V36.761H44.1507V32.8991C43.6726 34.1864 42.7163 35.2346 41.2818 36.0438C39.8842 36.8162 38.2291 37.2024 36.3165 37.2024C33.6315 37.2024 31.4431 36.4116 29.7512 34.83C28.0593 33.2485 27.2133 31.2623 27.2133 28.8716C27.2133 26.1499 28.1328 24.0166 29.9719 22.4718C31.8477 20.8903 34.3119 20.0995 37.3647 20.0995H42.0542C42.7163 20.0995 43.2312 19.9156 43.599 19.5478C43.9668 19.1432 44.1507 18.6467 44.1507 18.0582C44.1507 16.8812 43.7093 15.9433 42.8266 15.2445C41.9439 14.5089 40.7301 14.1411 39.1853 14.1411C37.6038 14.1411 36.3532 14.564 35.4337 15.41C34.551 16.2559 34.0729 17.3042 33.9993 18.5547H27.1582C27.3421 15.6491 28.5374 13.2583 30.7442 11.3825C32.9878 9.46996 35.9487 8.51367 39.6267 8.51367ZM38.2474 31.6302C40.0865 31.6302 41.5209 31.0417 42.5507 29.8647C43.6174 28.6877 44.1507 27.1797 44.1507 25.3407V24.9545H38.5233C37.3463 24.9545 36.39 25.2855 35.6544 25.9476C34.9188 26.6096 34.551 27.474 34.551 28.5406C34.551 29.4601 34.9004 30.2141 35.5993 30.8026C36.2981 31.3543 37.1808 31.6302 38.2474 31.6302Z" fill="#242424"/>
<path d="M73.4691 15.3548H68.89C67.0509 15.3548 65.6717 16.0537 64.7522 17.4513C63.8327 18.849 63.3729 20.7799 63.3729 23.2442V36.761H55.649V8.95504H63.3729V13.5894C64.1085 11.8975 65.0096 10.7021 66.0763 10.0033C67.1797 9.30445 68.5957 8.95504 70.3244 8.95504H73.4691V15.3548Z" fill="#242424"/>
<path d="M94.4391 8.95504H102.163V38.4161C102.163 41.3218 101.207 43.639 99.2941 45.3676C97.3815 47.1331 94.8437 48.0158 91.6806 48.0158H77.6673V42.0022H90.4668C91.6438 42.0022 92.6001 41.5793 93.3357 40.7333C94.1081 39.9241 94.4943 38.8759 94.4943 37.5886V33.9473C93.7955 34.9772 92.7656 35.7863 91.4047 36.3748C90.0439 36.9265 88.5359 37.2024 86.8807 37.2024C82.7981 37.2024 79.5798 35.9151 77.2259 33.3404C74.9087 30.729 73.7501 27.2349 73.7501 22.858C73.7501 18.4812 74.9087 15.0054 77.2259 12.4308C79.5798 9.81938 82.7613 8.51367 86.7704 8.51367C90.191 8.51367 92.7472 9.58031 94.4391 11.7136V8.95504ZM83.1291 28.4854C84.3797 29.8831 86.0348 30.5819 88.0945 30.5819C90.1542 30.5819 91.8093 29.8831 93.0598 28.4854C94.3104 27.0878 94.9356 25.212 94.9356 22.858C94.9356 20.5041 94.3104 18.6283 93.0598 17.2306C91.8093 15.7962 90.1542 15.079 88.0945 15.079C86.0348 15.079 84.3797 15.7962 83.1291 17.2306C81.9154 18.6283 81.3085 20.5041 81.3085 22.858C81.3085 25.212 81.9154 27.0878 83.1291 28.4854Z" fill="#242424"/>
<path d="M125.468 27.3268H132.971C132.42 30.3061 130.93 32.6968 128.503 34.499C126.075 36.3013 123.151 37.2024 119.731 37.2024C115.28 37.2024 111.786 35.7679 109.248 32.8991C106.71 29.9934 105.441 26.628 105.441 22.8029C105.441 18.9409 106.618 15.5939 108.972 12.7618C111.363 9.92972 114.765 8.51367 119.179 8.51367C123.703 8.51367 127.123 9.87455 129.441 12.5963C131.758 15.318 132.916 18.4812 132.916 22.0856C132.916 22.9316 132.88 23.7591 132.806 24.5683H112.834C113.128 26.5545 113.864 28.1176 115.041 29.2578C116.255 30.3612 117.818 30.9129 119.731 30.9129C122.93 30.9129 124.843 29.7176 125.468 27.3268ZM119.179 14.1411C115.648 14.1411 113.57 15.9985 112.945 19.7133H125.248C125.137 18.095 124.549 16.7709 123.482 15.741C122.415 14.6744 120.981 14.1411 119.179 14.1411Z" fill="#242424"/>
<path d="M135.776 36.761V8.95504H143.5V12.817C145.155 9.94811 147.968 8.51367 151.941 8.51367C155.067 8.51367 157.568 9.52514 159.444 11.5481C161.356 13.571 162.313 16.2008 162.313 19.4375V36.761H154.589V21.1477C154.589 19.4558 154.092 18.0766 153.099 17.0099C152.106 15.9065 150.819 15.3548 149.237 15.3548C147.545 15.3548 146.166 15.9433 145.1 17.1203C144.033 18.2605 143.5 19.7317 143.5 21.5339V36.761H135.776Z" fill="#242424"/>
<path d="M169.285 0.734619H176.954V8.95504H184.402V15.3548H176.954V26.3338C176.954 28.982 178.26 30.3061 180.871 30.3061H184.402V36.761H179.823C176.586 36.761 174.012 35.8783 172.099 34.1128C170.223 32.3474 169.285 29.8647 169.285 26.6648V15.3548H163.934V8.95504H169.285V0.734619Z" fill="#242424"/>
<path fill-rule="evenodd" clip-rule="evenodd" d="M219.869 15.1239C219.336 15.9114 218.773 15.2753 216.736 16.2516C211.784 18.6244 208.478 26.445 213.192 29.3341C215.788 30.9257 217.746 29.5119 219.846 28.7963C219.73 33.297 213.523 35.2789 208.867 36.1865C204.159 37.1039 196.23 37.2064 191.247 36.9L191.155 17.5033C197.729 16.6139 204.476 18.9156 214.758 14.9737C216.737 14.2148 218.982 12.6591 219.772 11.4316L219.869 15.1239Z" fill="#242424"/>
<path fill-rule="evenodd" clip-rule="evenodd" d="M201.521 13.4536L201.466 0.509606C201.641 -0.0859101 201.377 0.189161 202.01 0.0350553C205.929 -0.354688 219.912 2.50342 219.318 8.71005C219.039 11.6231 214.837 13.4082 211.8 14.3761C205.285 16.4527 206.623 14.6849 201.521 13.4536Z" fill="#242424"/>
<path fill-rule="evenodd" clip-rule="evenodd" d="M216.442 19.4902C216.402 19.5253 216.397 19.5273 216.354 19.5294C216.32 19.531 216.304 19.5356 216.29 19.548C216.279 19.5573 216.255 19.567 216.233 19.5706C216.206 19.5751 216.181 19.5865 216.15 19.6087C216.109 19.6375 216.103 19.6397 216.084 19.6328C216.067 19.6266 216.045 19.6318 215.969 19.6598C215.917 19.6789 215.867 19.7014 215.857 19.7098C215.847 19.7182 215.815 19.7326 215.785 19.7417C215.724 19.7609 215.687 19.7833 215.628 19.8387C215.605 19.8604 215.564 19.8908 215.537 19.9061C215.475 19.9419 215.449 19.9615 215.42 19.994C215.388 20.0309 215.344 20.0493 215.298 20.0456C215.266 20.043 215.251 20.0469 215.205 20.0694C215.175 20.0843 215.14 20.0969 215.128 20.0976C215.11 20.0986 215.073 20.0714 215.046 20.0377C215.045 20.0364 215.031 20.0456 215.016 20.0582C215.001 20.0714 214.977 20.1063 214.96 20.1409C214.944 20.1738 214.914 20.2282 214.892 20.2618C214.857 20.3159 214.843 20.3298 214.766 20.3848C214.666 20.456 214.646 20.4759 214.609 20.5424C214.595 20.5689 214.567 20.6143 214.547 20.6432C214.494 20.7224 214.478 20.7639 214.483 20.8113C214.487 20.8495 214.485 20.8556 214.441 20.9222C214.409 20.9708 214.376 21.0091 214.333 21.0459C214.299 21.0751 214.259 21.1122 214.244 21.1283C214.228 21.1444 214.189 21.1713 214.156 21.1881C214.097 21.2185 214.097 21.2189 214.055 21.2932C214.017 21.361 213.951 21.4378 213.924 21.4462C213.918 21.4479 213.892 21.4922 213.866 21.5447C213.84 21.5972 213.788 21.6827 213.751 21.7347C213.713 21.7867 213.678 21.8394 213.671 21.8518C213.616 21.9614 213.586 22.0135 213.572 22.0222C213.552 22.0354 213.522 22.1029 213.514 22.1556C213.509 22.1857 213.51 22.1941 213.518 22.1869C213.524 22.1812 213.531 22.1833 213.534 22.192C213.537 22.2003 213.548 22.2137 213.558 22.2219C213.58 22.2402 213.574 22.289 213.545 22.3402C213.528 22.3691 213.526 22.378 213.535 22.3945C213.555 22.4347 213.545 22.5115 213.502 22.656C213.479 22.7323 213.455 22.8128 213.449 22.8348C213.44 22.8651 213.426 22.8862 213.39 22.9214L213.343 22.9679L213.366 22.985C213.382 22.9962 213.393 23.0194 213.4 23.0527C213.409 23.0973 213.408 23.1079 213.393 23.1419C213.372 23.1907 213.372 23.2122 213.393 23.2418C213.413 23.2691 213.456 23.2808 213.495 23.2689C213.518 23.2616 213.521 23.2633 213.516 23.2843C213.512 23.2995 213.516 23.3141 213.527 23.3248C213.536 23.3341 213.545 23.3482 213.549 23.3561C213.552 23.364 213.562 23.368 213.572 23.3649C213.584 23.3612 213.596 23.3694 213.608 23.3885C213.617 23.4046 213.633 23.4203 213.643 23.4235C213.653 23.4266 213.676 23.4466 213.693 23.4678C213.717 23.4968 213.725 23.5163 213.725 23.5452C213.724 23.6246 213.78 23.6855 213.864 23.6954C213.882 23.6975 213.918 23.7126 213.943 23.7289C213.968 23.7452 214.003 23.764 214.02 23.7706C214.037 23.7773 214.081 23.802 214.117 23.8257C214.19 23.874 214.294 23.8977 214.353 23.8796C214.371 23.8738 214.413 23.8487 214.444 23.8237C214.582 23.7155 214.795 23.6415 214.946 23.6493C214.97 23.6505 214.982 23.6456 215.016 23.62C215.038 23.6031 215.069 23.5823 215.085 23.5738C215.101 23.5654 215.145 23.5323 215.184 23.5004C215.223 23.4685 215.267 23.4386 215.282 23.434C215.297 23.4294 215.32 23.4139 215.333 23.3994C215.382 23.3451 215.695 23.2191 215.732 23.2389C215.767 23.2575 215.817 23.323 215.817 23.3487C215.817 23.3639 215.827 23.3848 215.842 23.3984C215.866 23.4205 215.87 23.4208 215.921 23.4038C215.959 23.3909 215.977 23.3804 215.985 23.367C215.995 23.351 216 23.3486 216.023 23.3512C216.061 23.3556 216.133 23.3213 216.133 23.2981C216.133 23.2773 216.149 23.2697 216.157 23.2872C216.159 23.2939 216.168 23.2975 216.177 23.2952C216.185 23.2928 216.2 23.3017 216.209 23.3149C216.219 23.3281 216.238 23.341 216.252 23.3434C216.265 23.3459 216.277 23.3536 216.276 23.3605C216.276 23.3675 216.286 23.3824 216.299 23.3936C216.32 23.4128 216.32 23.4164 216.308 23.4491C216.301 23.4683 216.292 23.5099 216.289 23.5416C216.285 23.5732 216.276 23.613 216.268 23.6298C216.258 23.6519 216.257 23.6625 216.264 23.6675C216.277 23.6767 216.276 23.7255 216.263 23.7295C216.258 23.7312 216.256 23.7378 216.258 23.7442C216.261 23.7507 216.257 23.7627 216.25 23.771C216.243 23.7794 216.237 23.8021 216.237 23.8219C216.236 23.8498 216.23 23.8649 216.21 23.89L216.183 23.9222L216.212 23.9751C216.251 24.0481 216.254 24.0511 216.398 24.1578C216.498 24.2314 216.53 24.2607 216.54 24.2898C216.548 24.3103 216.559 24.3401 216.565 24.3559C216.571 24.3718 216.578 24.3945 216.581 24.4064C216.583 24.4183 216.599 24.4467 216.615 24.4696C216.641 24.5049 216.659 24.5535 216.686 24.6582C216.689 24.6691 216.687 24.689 216.68 24.7024C216.666 24.7338 216.679 24.7813 216.72 24.8541C216.749 24.9048 216.75 24.9101 216.744 24.9809C216.737 25.0656 216.724 25.101 216.685 25.1425C216.63 25.2006 216.596 25.2919 216.568 25.4536C216.561 25.4992 216.55 25.5563 216.546 25.5806C216.511 25.7635 216.517 25.804 216.593 25.8847C216.621 25.9144 216.674 25.9904 216.712 26.0535C216.749 26.1165 216.791 26.18 216.806 26.1944C216.834 26.2219 216.855 26.3014 216.855 26.3777C216.855 26.3992 216.863 26.4362 216.873 26.4599C216.883 26.4836 216.891 26.5154 216.891 26.5306C216.891 26.5854 216.931 26.7331 216.954 26.7675C216.968 26.7868 217.003 26.8211 217.033 26.8437C217.078 26.8773 217.098 26.9042 217.144 26.9902C217.175 27.0482 217.21 27.1049 217.223 27.1162C217.268 27.1575 217.277 27.2481 217.238 27.2659C217.212 27.2778 217.212 27.286 217.241 27.3295C217.278 27.3842 217.325 27.4252 217.344 27.4194C217.353 27.4165 217.366 27.4209 217.372 27.4292C217.386 27.448 217.408 27.4409 217.459 27.402C217.483 27.3835 217.518 27.3654 217.547 27.3562C217.575 27.3475 217.609 27.3305 217.625 27.3168C217.641 27.3036 217.675 27.2854 217.7 27.2765C217.725 27.2676 217.755 27.2543 217.768 27.247C217.78 27.2396 217.814 27.2326 217.844 27.2313C217.891 27.2292 217.899 27.2268 217.912 27.2105C217.92 27.2003 217.94 27.1882 217.955 27.1835C217.97 27.1788 217.987 27.1671 217.994 27.1576C218.001 27.1462 218.021 27.1351 218.052 27.1255C218.079 27.1173 218.116 27.0991 218.135 27.085C218.173 27.0572 218.265 26.9514 218.353 26.8346C218.383 26.7943 218.425 26.7418 218.447 26.718C218.468 26.6939 218.513 26.6254 218.546 26.5641C218.583 26.4963 218.619 26.4414 218.639 26.4222C218.657 26.4049 218.68 26.3782 218.691 26.3628C218.713 26.3315 218.762 26.2 218.782 26.1155C218.794 26.0671 218.794 26.0591 218.782 26.0494C218.747 26.0202 218.78 25.9797 218.91 25.8944C218.964 25.8583 219.018 25.82 219.029 25.8092C219.049 25.7904 219.07 25.7357 219.074 25.6958C219.075 25.6853 219.083 25.6499 219.091 25.617C219.11 25.5442 219.11 25.5112 219.095 25.4835C219.088 25.4719 219.08 25.4437 219.077 25.4209C219.073 25.3981 219.061 25.3675 219.049 25.3529C219.014 25.3101 219.024 25.2607 219.073 25.2342C219.093 25.2239 219.111 25.2025 219.133 25.1645C219.153 25.1299 219.177 25.1018 219.196 25.0885C219.216 25.0753 219.242 25.0436 219.267 25.0034C219.318 24.921 219.391 24.8485 219.45 24.8217C219.494 24.8018 219.618 24.6983 219.618 24.6813C219.618 24.6769 219.637 24.6463 219.66 24.6131C219.683 24.58 219.712 24.5261 219.725 24.4934C219.747 24.4383 219.747 24.4303 219.738 24.3844C219.732 24.3522 219.731 24.2893 219.736 24.2052C219.742 24.0948 219.746 24.0679 219.765 24.0242C219.792 23.9625 219.788 23.9469 219.741 23.9233C219.717 23.9113 219.706 23.8981 219.706 23.8828C219.706 23.8704 219.694 23.831 219.679 23.7955C219.655 23.7384 219.653 23.7261 219.662 23.6913C219.667 23.6695 219.67 23.6462 219.667 23.6395C219.664 23.6327 219.667 23.6076 219.673 23.5837L219.683 23.5401L219.646 23.5186L219.609 23.497L219.623 23.4373C219.645 23.3462 219.664 23.2904 219.679 23.2745C219.693 23.2602 219.758 23.1116 219.771 23.0644C219.779 23.0373 219.853 22.936 219.878 22.9187C219.886 22.9127 219.913 22.8758 219.937 22.8366C219.961 22.7974 219.994 22.746 220.01 22.7223C220.027 22.6986 220.04 22.6703 220.04 22.6595C220.04 22.6447 220.046 22.638 220.063 22.6329C220.075 22.6289 220.089 22.6171 220.094 22.6055C220.099 22.5942 220.142 22.5421 220.188 22.4898C220.234 22.4374 220.282 22.3809 220.294 22.3642C220.306 22.3475 220.337 22.3164 220.364 22.2949C220.39 22.2735 220.424 22.2367 220.44 22.2131C220.485 22.1427 220.493 22.1325 220.506 22.1201C220.534 22.0929 220.64 21.9292 220.647 21.9023C220.65 21.8863 220.677 21.8421 220.706 21.8041C220.747 21.7489 220.759 21.7266 220.765 21.6931C220.769 21.67 220.783 21.6267 220.797 21.5969C220.812 21.5671 220.826 21.5252 220.83 21.5037C220.834 21.4823 220.848 21.4447 220.863 21.4201C220.877 21.3956 220.889 21.3707 220.889 21.3648C220.889 21.3589 220.899 21.3367 220.911 21.3155C220.925 21.2895 220.934 21.2573 220.938 21.2172C220.942 21.1727 220.948 21.1528 220.961 21.1392C220.977 21.1229 220.978 21.1166 220.97 21.0796C220.965 21.0568 220.961 21.0218 220.961 21.0018C220.96 20.9708 220.956 20.9651 220.935 20.964C220.916 20.963 220.907 20.9675 220.892 20.9859C220.865 21.0186 220.726 21.0992 220.602 21.1529C220.568 21.168 220.526 21.1939 220.5 21.2163C220.465 21.2465 220.452 21.2538 220.434 21.2524C220.395 21.2493 220.364 21.2642 220.322 21.306C220.25 21.3767 220.195 21.3786 220.138 21.3122C220.106 21.2749 220.096 21.2695 220.069 21.2753C220.022 21.2854 220.02 21.2761 220.06 21.2359C220.093 21.2022 220.095 21.1975 220.088 21.1736C220.079 21.144 220.055 21.121 220.039 21.1261C220.033 21.1281 220.002 21.1105 219.971 21.0872C219.939 21.0639 219.908 21.0446 219.9 21.0444C219.893 21.0442 219.878 21.0322 219.866 21.0178C219.853 21.0009 219.837 20.9925 219.82 20.9943C219.805 20.9958 219.787 20.9914 219.778 20.9844C219.77 20.9775 219.752 20.9751 219.739 20.9793C219.722 20.9844 219.711 20.9807 219.703 20.9673C219.695 20.9543 219.686 20.9511 219.675 20.9577C219.656 20.9696 219.623 20.9225 219.59 20.8383C219.551 20.738 219.518 20.6863 219.489 20.6772C219.474 20.6724 219.462 20.6643 219.462 20.6591C219.462 20.654 219.452 20.6527 219.441 20.6563C219.429 20.66 219.413 20.6574 219.405 20.6507C219.38 20.6298 219.354 20.5437 219.349 20.4632C219.346 20.4085 219.339 20.3814 219.328 20.3694C219.319 20.3601 219.307 20.3382 219.302 20.3206C219.294 20.289 219.268 20.2721 219.186 20.2432C219.162 20.2346 219.153 20.2236 219.146 20.1946C219.141 20.1696 219.142 20.1508 219.148 20.1383C219.156 20.123 219.153 20.1167 219.129 20.1047C219.093 20.0862 218.987 19.9454 218.931 19.8411C218.907 19.7964 218.875 19.7522 218.856 19.7385C218.826 19.7167 218.767 19.6264 218.768 19.6015C218.768 19.577 218.788 19.5899 218.832 19.6437C218.899 19.7255 218.954 19.77 218.966 19.7537C218.971 19.7466 218.982 19.7083 218.989 19.6688C218.996 19.6292 219.005 19.5852 219.008 19.5711C219.012 19.5528 219 19.5209 218.968 19.4596C218.943 19.4123 218.921 19.3727 218.919 19.3715C218.918 19.3703 218.902 19.3803 218.884 19.3936C218.832 19.4318 218.781 19.443 218.727 19.4285C218.683 19.4166 218.677 19.4174 218.633 19.4392C218.608 19.4521 218.583 19.4617 218.58 19.4604C218.576 19.4592 218.535 19.4866 218.49 19.5214C218.407 19.5846 218.407 19.5846 218.364 19.584C218.255 19.5824 218.13 19.5953 218.08 19.6131C218.031 19.6307 218.026 19.6305 218.003 19.6103C217.982 19.5913 217.972 19.5903 217.92 19.602C217.833 19.6216 217.795 19.6196 217.789 19.5951C217.782 19.5681 217.736 19.5662 217.659 19.5897C217.611 19.6045 217.592 19.6152 217.552 19.6498C217.526 19.6729 217.5 19.7012 217.494 19.7127C217.489 19.7254 217.487 19.7588 217.491 19.7988C217.496 19.8625 217.495 19.8652 217.469 19.9036C217.445 19.9373 217.436 19.9449 217.401 19.9557C217.368 19.9657 217.354 19.9647 217.334 19.951C217.32 19.9414 217.301 19.9357 217.293 19.9384C217.284 19.9411 217.257 19.9391 217.233 19.934C217.201 19.9273 217.174 19.9292 217.138 19.9405C217.074 19.9601 217.043 19.949 217.02 19.899C217.007 19.8702 216.996 19.8617 216.963 19.8563C216.903 19.8464 216.83 19.8514 216.771 19.8697C216.734 19.8813 216.707 19.8832 216.675 19.8765C216.65 19.8714 216.624 19.869 216.617 19.8712C216.61 19.8734 216.598 19.8668 216.59 19.8566C216.58 19.8441 216.567 19.8406 216.55 19.846C216.536 19.8504 216.517 19.8478 216.508 19.8401C216.491 19.8265 216.492 19.8253 216.561 19.7366C216.6 19.6872 216.631 19.6391 216.631 19.6297C216.632 19.6202 216.622 19.6003 216.609 19.5855C216.581 19.5508 216.581 19.5399 216.615 19.4996C216.63 19.4813 216.642 19.4599 216.642 19.452C216.642 19.4382 216.634 19.4411 216.592 19.4694C216.587 19.4728 216.576 19.4652 216.568 19.4526C216.555 19.433 216.548 19.4313 216.519 19.4413C216.5 19.4478 216.465 19.4698 216.442 19.4902ZM220.677 23.8768C220.668 23.8863 220.661 23.9061 220.661 23.9208C220.66 23.96 220.651 23.9921 220.638 23.996C220.632 23.9978 220.618 24.0149 220.607 24.0338C220.592 24.0589 220.582 24.0683 220.569 24.0681C220.554 24.0679 220.551 24.0724 220.551 24.0958C220.551 24.1119 220.545 24.1292 220.536 24.1366C220.524 24.1473 220.523 24.1524 220.532 24.1671C220.544 24.1858 220.543 24.1876 220.501 24.2249C220.488 24.2367 220.482 24.2381 220.48 24.2307C220.475 24.216 220.451 24.2573 220.451 24.2821C220.45 24.3098 220.434 24.3227 220.415 24.3109C220.394 24.2974 220.378 24.3197 220.378 24.3649C220.377 24.4051 220.373 24.409 220.346 24.3912C220.324 24.3772 220.293 24.3923 220.27 24.4277C220.261 24.4415 220.254 24.445 220.241 24.4419C220.228 24.4389 220.218 24.4431 220.204 24.4583C220.193 24.4695 220.174 24.4816 220.163 24.4851C220.148 24.4897 220.141 24.4989 220.137 24.5187C220.133 24.5337 220.117 24.5709 220.101 24.6014C220.071 24.6561 220.071 24.6577 220.078 24.7238C220.096 24.8948 220.097 24.9299 220.083 24.951C220.075 24.9622 220.054 25.0032 220.035 25.042C220.016 25.0809 219.989 25.1271 219.975 25.1448C219.951 25.1744 219.929 25.2338 219.929 25.2698C219.929 25.2781 219.936 25.2925 219.944 25.302C219.96 25.3198 219.963 25.3815 219.95 25.4435C219.939 25.494 219.97 25.5425 220.03 25.5705L220.081 25.5943L220.144 25.5521C220.179 25.5289 220.21 25.5062 220.212 25.5017C220.214 25.4971 220.227 25.4899 220.241 25.4856C220.29 25.4698 220.333 25.395 220.407 25.1931C220.433 25.1239 220.491 24.9741 220.535 24.8603C220.58 24.7465 220.628 24.6146 220.642 24.5671C220.656 24.5197 220.673 24.4687 220.68 24.4539C220.723 24.3596 220.727 24.3444 220.723 24.2929C220.719 24.2396 220.733 24.2064 220.744 24.2422C220.75 24.2599 220.764 24.2705 220.776 24.267C220.779 24.2662 220.786 24.2528 220.792 24.2373C220.801 24.2156 220.801 24.1906 220.794 24.1283C220.773 23.9435 220.771 23.9355 220.738 23.8945C220.704 23.8517 220.701 23.8509 220.677 23.8768Z" fill="#242424"/>
</svg>
