<svg width="535" height="82" viewBox="0 0 535 82" fill="none" xmlns="http://www.w3.org/2000/svg">
<path d="M152.624 66.4986H146.3L119.903 15.6229H127.115L149.462 60.1746L171.809 15.6229H179.021L152.624 66.4986Z" fill="#242424"/>
<path d="M209.009 67.067C204.296 67.067 200.116 66.392 196.468 65.0419C192.821 63.6682 189.741 61.7971 187.231 59.4285C184.744 57.0364 182.861 54.2534 181.582 51.0795C180.303 47.9057 179.663 44.5069 179.663 40.8831C179.663 37.283 180.291 33.896 181.546 30.7222C182.825 27.5484 184.685 24.7772 187.124 22.4087C189.564 20.0165 192.56 18.1454 196.113 16.7953C199.689 15.4453 203.763 14.7703 208.334 14.7703C212.716 14.7703 216.589 15.4453 219.952 16.7953C223.339 18.1454 226.169 20.0165 228.443 22.4087C230.74 24.7772 232.469 27.5484 233.63 30.7222C234.814 33.896 235.406 37.283 235.406 40.8831C235.406 41.8779 235.347 42.8253 235.229 43.7253H186.201C186.627 47.0886 187.776 50.0966 189.647 52.7493C191.518 55.4021 194.076 57.5101 197.321 59.0733C200.566 60.6365 204.462 61.4181 209.009 61.4181C213.391 61.4181 217.382 60.7904 220.982 59.5351C224.582 58.2561 228.336 56.3376 232.244 53.7796V60.2102C224.902 64.7814 217.157 67.067 209.009 67.067ZM228.869 38.0764C228.467 34.7131 227.389 31.7051 225.636 29.0524C223.884 26.3997 221.539 24.3035 218.602 22.764C215.665 21.2008 212.242 20.4192 208.334 20.4192C203.834 20.4192 199.997 21.2008 196.823 22.764C193.673 24.3035 191.21 26.3997 189.434 29.0524C187.657 31.7051 186.58 34.7131 186.201 38.0764H228.869Z" fill="#242424"/>
<path d="M289.589 66.4986H283.229V41.0607C283.229 35.9684 282.483 31.9301 280.991 28.9458C279.499 25.9378 277.474 23.7943 274.916 22.5153C272.382 21.2126 269.516 20.5613 266.318 20.5613C264.021 20.5613 261.309 20.81 258.182 21.3074C255.08 21.7811 251.965 22.6929 248.839 24.043V66.4986H242.479V15.6229H248.839V17.9678C254.073 15.9308 259.935 14.9124 266.425 14.9124C271.588 14.9124 275.875 15.8124 279.286 17.6125C282.72 19.3889 285.29 22.2192 286.995 26.1036C288.724 29.9643 289.589 34.95 289.589 41.0607V66.4986Z" fill="#242424"/>
<path d="M325.972 67.067C321.259 67.067 317.078 66.392 313.431 65.0419C309.783 63.6682 306.704 61.7971 304.194 59.4285C301.707 57.0364 299.824 54.2534 298.545 51.0795C297.266 47.9057 296.626 44.5069 296.626 40.8831C296.626 37.283 297.254 33.896 298.509 30.7222C299.788 27.5484 301.647 24.7772 304.087 22.4087C306.527 20.0165 309.523 18.1454 313.076 16.7953C316.652 15.4453 320.726 14.7703 325.297 14.7703C329.679 14.7703 333.551 15.4453 336.915 16.7953C340.302 18.1454 343.132 20.0165 345.406 22.4087C347.703 24.7772 349.432 27.5484 350.593 30.7222C351.777 33.896 352.369 37.283 352.369 40.8831C352.369 41.8779 352.31 42.8253 352.192 43.7253H303.163C303.59 47.0886 304.738 50.0966 306.61 52.7493C308.481 55.4021 311.039 57.5101 314.283 59.0733C317.528 60.6365 321.425 61.4181 325.972 61.4181C330.354 61.4181 334.345 60.7904 337.945 59.5351C341.545 58.2561 345.299 56.3376 349.207 53.7796V60.2102C341.865 64.7814 334.12 67.067 325.972 67.067ZM345.832 38.0764C345.429 34.7131 344.352 31.7051 342.599 29.0524C340.846 26.3997 338.502 24.3035 335.565 22.764C332.628 21.2008 329.205 20.4192 325.297 20.4192C320.797 20.4192 316.96 21.2008 313.786 22.764C310.636 24.3035 308.173 26.3997 306.396 29.0524C304.62 31.7051 303.542 34.7131 303.163 38.0764H345.832Z" fill="#242424"/>
<path d="M408.15 66.4986H400.583L382.926 46.7096V41.0607H386.372C388.504 41.0607 390.47 40.7173 392.27 40.0304C394.07 39.3199 395.514 38.2304 396.604 36.7619C397.693 35.2934 398.238 33.4223 398.238 31.1485C398.238 28.8748 397.693 27.0036 396.604 25.5351C395.514 24.0667 394.07 22.989 392.27 22.3021C390.47 21.6153 388.504 21.2718 386.372 21.2718H365.801V66.4986H359.442V15.6229H386.372C389.759 15.6229 392.826 16.2387 395.574 17.4704C398.321 18.702 400.512 20.4784 402.146 22.7995C403.781 25.1207 404.598 27.9037 404.598 31.1485C404.598 33.9434 403.982 36.3948 402.75 38.5027C401.542 40.6107 399.884 42.3279 397.776 43.6543C395.692 44.9806 393.3 45.8807 390.6 46.3544L408.15 66.4986Z" fill="#242424"/>
<path d="M439.24 67.067C434.527 67.067 430.346 66.392 426.699 65.0419C423.051 63.6682 419.972 61.7852 417.462 59.393C414.975 57.0008 413.092 54.2178 411.813 51.044C410.534 47.8702 409.894 44.4951 409.894 40.9186C409.894 37.2948 410.534 33.9078 411.813 30.7577C413.092 27.6076 414.975 24.8364 417.462 22.4442C419.972 20.0284 423.051 18.1454 426.699 16.7953C430.346 15.4453 434.527 14.7703 439.24 14.7703C442.509 14.7703 445.73 15.1019 448.904 15.765C452.077 16.4282 454.801 17.3875 457.075 18.6428V25.4641C455.062 23.664 452.468 22.3732 449.294 21.5916C446.144 20.81 442.793 20.4192 439.24 20.4192C434.313 20.4192 430.133 21.3429 426.699 23.1903C423.288 25.0378 420.695 27.5129 418.918 30.6156C417.142 33.7184 416.254 37.1527 416.254 40.9186C416.254 44.6846 417.142 48.1189 418.918 51.2217C420.695 54.3244 423.288 56.7995 426.699 58.6469C430.133 60.4944 434.313 61.4181 439.24 61.4181C444.19 61.4181 448.501 60.4825 452.172 58.6114V45.9991H434.16V40.3502H458.532V60.672C457.276 61.7615 455.737 62.7918 453.913 63.7629C449.744 65.9656 444.853 67.067 439.24 67.067Z" fill="#242424"/>
<path d="M471.964 66.4986H465.604V15.6229H471.964V66.4986Z" fill="#242424"/>
<path d="M508.383 67.067C503.669 67.067 499.489 66.392 495.841 65.0419C492.194 63.6682 489.115 61.7971 486.604 59.4285C484.117 57.0364 482.234 54.2534 480.955 51.0795C479.676 47.9057 479.037 44.5069 479.037 40.8831C479.037 37.283 479.664 33.896 480.92 30.7222C482.199 27.5484 484.058 24.7772 486.497 22.4087C488.937 20.0165 491.933 18.1454 495.486 16.7953C499.062 15.4453 503.136 14.7703 507.707 14.7703C512.089 14.7703 515.962 15.4453 519.325 16.7953C522.712 18.1454 525.542 20.0165 527.816 22.4087C530.114 24.7772 531.843 27.5484 533.003 30.7222C534.187 33.896 534.78 37.283 534.78 40.8831C534.78 41.8779 534.72 42.8253 534.602 43.7253H485.574C486 47.0886 487.149 50.0966 489.02 52.7493C490.891 55.4021 493.449 57.5101 496.694 59.0733C499.939 60.6365 503.835 61.4181 508.383 61.4181C512.764 61.4181 516.755 60.7904 520.355 59.5351C523.955 58.2561 527.71 56.3376 531.618 53.7796V60.2102C524.275 64.7814 516.53 67.067 508.383 67.067ZM528.242 38.0764C527.84 34.7131 526.762 31.7051 525.009 29.0524C523.257 26.3997 520.912 24.3035 517.975 22.764C515.038 21.2008 511.616 20.4192 507.707 20.4192C503.207 20.4192 499.37 21.2008 496.197 22.764C493.046 24.3035 490.583 26.3997 488.807 29.0524C487.03 31.7051 485.953 34.7131 485.574 38.0764H528.242Z" fill="#242424"/>
<path fill-rule="evenodd" clip-rule="evenodd" d="M91.1224 38.4613C90.5699 36.6518 89.108 34.9545 87.8955 34.7149C87.5821 34.6531 82.5104 35.0878 76.6254 35.6812C68.43 36.5074 65.7773 36.8459 65.2928 37.1271C63.1068 38.3958 63.1068 43.2854 65.2928 44.55C65.7703 44.826 67.8861 45.1064 73.9234 45.6928C78.3223 46.1202 82.8174 46.5648 83.9125 46.6809C86.9543 47.003 88.0877 46.9526 88.8972 46.4589C89.6953 45.9723 90.7917 44.3697 91.1098 43.2244C91.3558 42.3386 91.3641 39.2529 91.1224 38.4613ZM71.8497 4.67534C70.918 2.90972 68.8035 1.33432 66.5738 0.744407C64.4321 0.177626 62.1215 0.799312 61.3656 2.1458C61.1987 2.44302 57.7431 9.37841 53.6866 17.5576C49.6299 25.737 46.2495 32.3693 46.1747 32.2965C46.0997 32.2234 42.5851 25.2881 38.3645 16.8845L30.6907 1.60539L29.8261 1.11124L28.9614 0.617085L27.2321 0.683449C25.9198 0.733599 25.2162 0.884696 24.3139 1.30946C21.7956 2.4949 19.9906 4.82968 19.9906 6.90118V7.89704L29.8438 22.6928C35.2632 30.8305 40.0884 37.9118 40.5668 38.4293C41.0782 38.9824 42.0281 39.6502 42.8726 40.0505L44.309 40.731L46.2545 40.7122L48.1999 40.6936L49.4159 40.1417C51.0699 39.3908 52.2039 38.3097 53.6488 36.106C55.8407 32.7626 63.6407 20.9825 68.0174 14.4053L72.3021 7.96665L72.2926 6.73149C72.2864 5.92823 72.1316 5.20926 71.8497 4.67534ZM69.9959 70.5276C66.4817 65.6384 64.1947 62.4548 61.8137 59.1369C59.2316 55.5388 58.8659 55.2222 57.3207 55.2444C54.9077 55.2792 52.4151 57.3888 52.4151 59.3963C52.4151 59.7443 52.9869 61.2801 53.6855 62.8095C54.3844 64.3386 56.388 68.7512 58.1383 72.6151C59.8883 76.479 61.5251 79.8624 61.7754 80.1335C62.0257 80.4048 62.7531 80.7785 63.3921 80.9644L64.5535 81.3021L65.8804 81.0682C67.6602 80.7548 69.187 79.974 70.4083 78.7527C71.6792 77.4816 72.3021 76.1814 72.3021 74.7992V73.7361L69.9959 70.5276ZM39.1948 57.9467C38.3217 56.1828 35.6195 54.8389 33.885 55.3058C33.4286 55.4288 32.8995 55.653 32.7093 55.8041C32.519 55.955 29.531 60.0508 26.0689 64.9056L19.7745 73.7327L19.7792 74.8492C19.7851 76.2389 20.3173 77.4304 21.4508 78.5923C23.8118 81.012 27.6852 81.9184 29.7697 80.5392C30.6637 79.9476 30.2964 80.7087 38.1711 63.1266C38.9907 61.2964 39.6615 59.5941 39.6613 59.3438C39.6613 59.0934 39.4514 58.4648 39.1948 57.9467ZM28.1681 39.0017C27.8447 38.1318 27.1837 37.2114 26.6943 36.9496C26.4745 36.8318 23.7333 36.486 20.6028 36.1805C17.4721 35.8753 12.5763 35.3987 9.7229 35.1213L4.53519 34.617L3.71939 34.9434C1.87941 35.6797 0.666958 38.0177 0.661987 40.8391C0.657231 43.6159 1.89714 46.0065 3.71939 46.7341L4.53498 47.0598L11.7764 46.3314C15.7592 45.9306 20.6229 45.4453 22.5846 45.2527C26.5903 44.8593 27.2496 44.6131 27.9011 43.2675C28.3639 42.3118 28.5131 39.9295 28.1681 39.0017Z" fill="#08F37D"/>
</svg>
